<?xml version="1.0" encoding="UTF-8" standalone="no"?><!DOCTYPE svg PUBLIC "-//W3C//DTD SVG 1.1//EN" "http://www.w3.org/Graphics/SVG/1.1/DTD/svg11.dtd"><!-- Generated by graphviz version 2.40.1 (20161225.0304) --><!-- Title: G Pages: 1 --><svg width="1057pt" height="284pt" viewBox="0.00 0.00 1057.00 284.00" xmlns="http://www.w3.org/2000/svg" xmlns:xlink="http://www.w3.org/1999/xlink"><g id="graph0" class="graph" transform="scale(1 1) rotate(0) translate(4 280)"><title>G</title><polygon fill="#ffffff" stroke="transparent" points="-4,4 -4,-280 1053,-280 1053,4 -4,4"/><!-- Request --><g id="node1" class="node"><title>Request</title><polygon fill="#ed6a5a" stroke="transparent" points="296.5,-258 296.5,-272 384.5,-272 384.5,-258 296.5,-258"/><polygon fill="none" stroke="#ed6a5a" points="296.5,-258 296.5,-272 384.5,-272 384.5,-258 296.5,-258"/><text text-anchor="start" x="323.6973" y="-262.6" font-family="Courier,monospace" font-size="8.00" fill="#ffffff">Request</text><polygon fill="#dddddd" stroke="transparent" points="296.5,-234 296.5,-258 384.5,-258 384.5,-234 296.5,-234"/><polygon fill="none" stroke="#dddddd" points="296.5,-234 296.5,-258 384.5,-258 384.5,-234 296.5,-234"/><text text-anchor="start" x="299.0933" y="-251.2" font-family="Courier,monospace" font-size="6.00" fill="#8b0000"> &#45; </text><text text-anchor="start" x="309.895" y="-251.2" font-family="Courier,monospace" font-size="6.00" fill="#000000">sender &#160;</text><text text-anchor="start" x="338.6997" y="-251.2" font-family="Courier,monospace" font-weight="bold" font-size="6.00" fill="#000000"> &#160;: Sender &#160;</text><text text-anchor="start" x="299.0933" y="-245.2" font-family="Courier,monospace" font-size="6.00" fill="#8b0000"> &#45; </text><text text-anchor="start" x="309.895" y="-245.2" font-family="Courier,monospace" font-size="6.00" fill="#000000">receiver</text><text text-anchor="start" x="338.6997" y="-245.2" font-family="Courier,monospace" font-weight="bold" font-size="6.00" fill="#000000"> &#160;: Receiver</text><text text-anchor="start" x="299.0933" y="-239.2" font-family="Courier,monospace" font-size="6.00" fill="#8b0000"> &#45; </text><text text-anchor="start" x="309.895" y="-239.2" font-family="Courier,monospace" font-size="6.00" fill="#000000">member &#160;</text><text text-anchor="start" x="338.6997" y="-239.2" font-family="Courier,monospace" font-weight="bold" font-size="6.00" fill="#000000"> &#160;: Member[]</text></g><!-- Receiver --><g id="node2" class="node"><title>Receiver</title><polygon fill="#68afcb" stroke="transparent" points="23.5,-155 23.5,-169 140.5,-169 140.5,-155 23.5,-155"/><polygon fill="none" stroke="#68afcb" points="23.5,-155 23.5,-169 140.5,-169 140.5,-155 23.5,-155"/><text text-anchor="start" x="62.7969" y="-159.6" font-family="Courier,monospace" font-size="8.00" fill="#ffffff">Receiver</text><polygon fill="#dddddd" stroke="transparent" points="23.5,-143 23.5,-155 140.5,-155 140.5,-143 23.5,-143"/><polygon fill="none" stroke="#dddddd" points="23.5,-143 23.5,-155 140.5,-155 140.5,-143 23.5,-143"/><text text-anchor="start" x="26.1909" y="-148.2" font-family="Courier,monospace" font-size="6.00" fill="#8b0000"> &#45; </text><text text-anchor="start" x="36.9927" y="-148.2" font-family="Courier,monospace" font-size="6.00" fill="#000000">organisation</text><text text-anchor="start" x="80.1997" y="-148.2" font-family="Courier,monospace" font-weight="bold" font-size="6.00" fill="#000000"> &#160;: Organisation</text></g><!-- Receiver&#45;&gt;Request --><g id="edge2" class="edge"><title>Receiver&#45;&gt;Request</title><path fill="none" stroke="#000000" d="M129.6089,-174.0176C171.7624,-189.8048 233.2648,-212.8386 278.986,-229.9619"/><polygon fill="#000000" stroke="#000000" points="279.2093,-230.0455 284.8268,-228.7323 288.1995,-233.4126 282.5821,-234.7258 279.2093,-230.0455"/></g><!-- Member --><g id="node3" class="node"><title>Member</title><polygon fill="#68afcb" stroke="transparent" points="632.5,-188 632.5,-202 760.5,-202 760.5,-188 632.5,-188"/><polygon fill="none" stroke="#68afcb" points="632.5,-188 632.5,-202 760.5,-202 760.5,-188 632.5,-188"/><text text-anchor="start" x="682.0977" y="-192.6" font-family="Courier,monospace" font-size="8.00" fill="#ffffff">Member</text><polygon fill="#dddddd" stroke="transparent" points="632.5,-110 632.5,-188 760.5,-188 760.5,-110 632.5,-110"/><polygon fill="none" stroke="#dddddd" points="632.5,-110 632.5,-188 760.5,-188 760.5,-110 632.5,-110"/><text text-anchor="start" x="635.29" y="-181.2" font-family="Courier,monospace" font-size="6.00" fill="#8b0000"> &#45; </text><text text-anchor="start" x="646.0918" y="-181.2" font-family="Courier,monospace" font-size="6.00" fill="#000000">transferring </text><text text-anchor="start" x="692.8994" y="-181.2" font-family="Courier,monospace" font-weight="bold" font-size="6.00" fill="#000000"> &#160;: FundMembership</text><text text-anchor="start" x="635.29" y="-175.2" font-family="Courier,monospace" font-size="6.00" fill="#8b0000"> &#45; </text><text text-anchor="start" x="646.0918" y="-175.2" font-family="Courier,monospace" font-size="6.00" fill="#000000">receiving &#160;&#160;&#160;</text><text text-anchor="start" x="692.8994" y="-175.2" font-family="Courier,monospace" font-weight="bold" font-size="6.00" fill="#000000"> &#160;: FundMembership</text><text text-anchor="start" x="635.29" y="-169.2" font-family="Courier,monospace" font-size="6.00" fill="#8b0000"> &#45; </text><text text-anchor="start" x="646.0918" y="-169.2" font-family="Courier,monospace" font-size="6.00" fill="#000000">usi &#160;&#160;&#160;&#160;&#160;&#160;&#160;&#160;&#160;</text><text text-anchor="start" x="692.8994" y="-169.2" font-family="Courier,monospace" font-weight="bold" font-size="6.00" fill="#000000"> &#160;: string &#160;&#160;&#160;&#160;&#160;&#160;&#160;</text><text text-anchor="start" x="635.29" y="-163.2" font-family="Courier,monospace" font-size="6.00" fill="#8b0000"> &#45; </text><text text-anchor="start" x="646.0918" y="-163.2" font-family="Courier,monospace" font-size="6.00" fill="#000000">person &#160;&#160;&#160;&#160;&#160;&#160;</text><text text-anchor="start" x="692.8994" y="-163.2" font-family="Courier,monospace" font-weight="bold" font-size="6.00" fill="#000000"> &#160;: Person &#160;&#160;&#160;&#160;&#160;&#160;&#160;</text><text text-anchor="start" x="635.29" y="-157.2" font-family="Courier,monospace" font-size="6.00" fill="#8b0000"> &#45; </text><text text-anchor="start" x="646.0918" y="-157.2" font-family="Courier,monospace" font-size="6.00" fill="#000000">sex &#160;&#160;&#160;&#160;&#160;&#160;&#160;&#160;&#160;</text><text text-anchor="start" x="692.8994" y="-157.2" font-family="Courier,monospace" font-weight="bold" font-size="6.00" fill="#000000"> &#160;: string &#160;&#160;&#160;&#160;&#160;&#160;&#160;</text><text text-anchor="start" x="635.29" y="-151.2" font-family="Courier,monospace" font-size="6.00" fill="#8b0000"> &#45; </text><text text-anchor="start" x="646.0918" y="-151.2" font-family="Courier,monospace" font-size="6.00" fill="#000000">birthDate &#160;&#160;&#160;</text><text text-anchor="start" x="692.8994" y="-151.2" font-family="Courier,monospace" font-weight="bold" font-size="6.00" fill="#000000"> &#160;: string &#160;&#160;&#160;&#160;&#160;&#160;&#160;</text><text text-anchor="start" x="635.29" y="-145.2" font-family="Courier,monospace" font-size="6.00" fill="#8b0000"> &#45; </text><text text-anchor="start" x="646.0918" y="-145.2" font-family="Courier,monospace" font-size="6.00" fill="#000000">address &#160;&#160;&#160;&#160;&#160;</text><text text-anchor="start" x="692.8994" y="-145.2" font-family="Courier,monospace" font-weight="bold" font-size="6.00" fill="#000000"> &#160;: Address &#160;&#160;&#160;&#160;&#160;&#160;</text><text text-anchor="start" x="635.29" y="-139.2" font-family="Courier,monospace" font-size="6.00" fill="#8b0000"> &#45; </text><text text-anchor="start" x="646.0918" y="-139.2" font-family="Courier,monospace" font-size="6.00" fill="#000000">tfnProvided &#160;</text><text text-anchor="start" x="692.8994" y="-139.2" font-family="Courier,monospace" font-weight="bold" font-size="6.00" fill="#000000"> &#160;: boolean &#160;&#160;&#160;&#160;&#160;&#160;</text><text text-anchor="start" x="635.29" y="-133.2" font-family="Courier,monospace" font-size="6.00" fill="#8b0000"> &#45; </text><text text-anchor="start" x="646.0918" y="-133.2" font-family="Courier,monospace" font-size="6.00" fill="#000000">wholeBalance </text><text text-anchor="start" x="692.8994" y="-133.2" font-family="Courier,monospace" font-weight="bold" font-size="6.00" fill="#000000"> &#160;: boolean &#160;&#160;&#160;&#160;&#160;&#160;</text><text text-anchor="start" x="635.29" y="-127.2" font-family="Courier,monospace" font-size="6.00" fill="#8b0000"> &#45; </text><text text-anchor="start" x="646.0918" y="-127.2" font-family="Courier,monospace" font-size="6.00" fill="#000000">requestAmount</text><text text-anchor="start" x="692.8994" y="-127.2" font-family="Courier,monospace" font-weight="bold" font-size="6.00" fill="#000000"> &#160;: float &#160;&#160;&#160;&#160;&#160;&#160;&#160;&#160;</text><text text-anchor="start" x="635.29" y="-121.2" font-family="Courier,monospace" font-size="6.00" fill="#8b0000"> &#45; </text><text text-anchor="start" x="646.0918" y="-121.2" font-family="Courier,monospace" font-size="6.00" fill="#000000">id &#160;&#160;&#160;&#160;&#160;&#160;&#160;&#160;&#160;&#160;</text><text text-anchor="start" x="692.8994" y="-121.2" font-family="Courier,monospace" font-weight="bold" font-size="6.00" fill="#000000"> &#160;: string &#160;&#160;&#160;&#160;&#160;&#160;&#160;</text><text text-anchor="start" x="635.29" y="-115.2" font-family="Courier,monospace" font-size="6.00" fill="#8b0000"> &#45; </text><text text-anchor="start" x="646.0918" y="-115.2" font-family="Courier,monospace" font-size="6.00" fill="#000000">details &#160;&#160;&#160;&#160;&#160;</text><text text-anchor="start" x="692.8994" y="-115.2" font-family="Courier,monospace" font-weight="bold" font-size="6.00" fill="#000000"> &#160;: OtherDetails[]</text></g><!-- Member&#45;&gt;Request --><g id="edge3" class="edge"><title>Member&#45;&gt;Request</title><path fill="none" stroke="#000000" d="M624.4581,-175.6294C559.1767,-193.4168 463.9997,-219.3498 402.1595,-236.1995"/><polygon fill="#000000" stroke="#000000" points="401.7928,-236.2994 398.0029,-240.6487 392.5304,-238.8232 396.3203,-234.4738 401.7928,-236.2994"/></g><!-- FundMembership --><g id="node4" class="node"><title>FundMembership</title><polygon fill="#68afcb" stroke="transparent" points="660.5,-43 660.5,-57 733.5,-57 733.5,-43 660.5,-43"/><polygon fill="none" stroke="#68afcb" points="660.5,-43 660.5,-57 733.5,-57 733.5,-43 660.5,-43"/><text text-anchor="start" x="663.3945" y="-47.6" font-family="Courier,monospace" font-size="8.00" fill="#ffffff">FundMembership</text><polygon fill="#dddddd" stroke="transparent" points="660.5,-25 660.5,-43 733.5,-43 733.5,-25 660.5,-25"/><polygon fill="none" stroke="#dddddd" points="660.5,-25 660.5,-43 733.5,-43 733.5,-25 660.5,-25"/><text text-anchor="start" x="668.1953" y="-36.2" font-family="Courier,monospace" font-size="6.00" fill="#8b0000"> &#45; </text><text text-anchor="start" x="678.9971" y="-36.2" font-family="Courier,monospace" font-size="6.00" fill="#000000">abn</text><text text-anchor="start" x="689.7988" y="-36.2" font-family="Courier,monospace" font-weight="bold" font-size="6.00" fill="#000000"> &#160;: string</text><text text-anchor="start" x="668.1953" y="-30.2" font-family="Courier,monospace" font-size="6.00" fill="#8b0000"> &#45; </text><text text-anchor="start" x="678.9971" y="-30.2" font-family="Courier,monospace" font-size="6.00" fill="#000000">usi</text><text text-anchor="start" x="689.7988" y="-30.2" font-family="Courier,monospace" font-weight="bold" font-size="6.00" fill="#000000"> &#160;: string</text></g><!-- FundMembership&#45;&gt;Member --><g id="edge5" class="edge"><title>FundMembership&#45;&gt;Member</title><path fill="none" stroke="#000000" d="M678.3586,-61.0315C675.1697,-70.8773 673.4738,-83.3193 673.2707,-95.9265"/><polygon fill="#000000" stroke="#000000" points="673.2711,-95.9603 676.5385,-100.7147 673.4065,-105.5593 670.1391,-100.8049 673.2711,-95.9603"/></g><!-- FundMembership&#45;&gt;Member --><g id="edge6" class="edge"><title>FundMembership&#45;&gt;Member</title><path fill="none" stroke="#000000" d="M714.6414,-61.0315C717.8303,-70.8773 719.5262,-83.3193 719.7293,-95.9265"/><polygon fill="#000000" stroke="#000000" points="719.7289,-95.9603 722.8609,-100.8049 719.5935,-105.5593 716.4615,-100.7147 719.7289,-95.9603"/></g><!-- OtherDetails --><g id="node5" class="node"><title>OtherDetails</title><polygon fill="#68afcb" stroke="transparent" points="811.5,-43 811.5,-57 881.5,-57 881.5,-43 811.5,-43"/><polygon fill="none" stroke="#68afcb" points="811.5,-43 811.5,-57 881.5,-57 881.5,-43 811.5,-43"/><text text-anchor="start" x="817.6953" y="-47.6" font-family="Courier,monospace" font-size="8.00" fill="#ffffff">OtherDetails</text><polygon fill="#dddddd" stroke="transparent" points="811.5,-25 811.5,-43 881.5,-43 881.5,-25 811.5,-25"/><polygon fill="none" stroke="#dddddd" points="811.5,-25 811.5,-43 881.5,-43 881.5,-25 811.5,-25"/><text text-anchor="start" x="814.0947" y="-36.2" font-family="Courier,monospace" font-size="6.00" fill="#8b0000"> &#45; </text><text text-anchor="start" x="824.8965" y="-36.2" font-family="Courier,monospace" font-size="6.00" fill="#000000">name </text><text text-anchor="start" x="842.8994" y="-36.2" font-family="Courier,monospace" font-weight="bold" font-size="6.00" fill="#000000"> &#160;: string</text><text text-anchor="start" x="814.0947" y="-30.2" font-family="Courier,monospace" font-size="6.00" fill="#8b0000"> &#45; </text><text text-anchor="start" x="824.8965" y="-30.2" font-family="Courier,monospace" font-size="6.00" fill="#000000">value</text><text text-anchor="start" x="842.8994" y="-30.2" font-family="Courier,monospace" font-weight="bold" font-size="6.00" fill="#000000"> &#160;: string</text></g><!-- OtherDetails&#45;&gt;Member --><g id="edge9" class="edge"><title>OtherDetails&#45;&gt;Member</title><path fill="none" stroke="#000000" d="M820.372,-61.0315C806.197,-71.8989 787.8968,-85.9291 769.7346,-99.8535"/><polygon fill="#000000" stroke="#000000" points="769.5904,-99.964 767.728,-105.4241 761.9717,-105.805 763.834,-100.345 769.5904,-99.964"/></g><!-- Sender --><g id="node6" class="node"><title>Sender</title><polygon fill="#68afcb" stroke="transparent" points="282.5,-164 282.5,-178 399.5,-178 399.5,-164 282.5,-164"/><polygon fill="none" stroke="#68afcb" points="282.5,-164 282.5,-178 399.5,-178 399.5,-164 282.5,-164"/><text text-anchor="start" x="326.5977" y="-168.6" font-family="Courier,monospace" font-size="8.00" fill="#ffffff">Sender</text><polygon fill="#dddddd" stroke="transparent" points="282.5,-134 282.5,-164 399.5,-164 399.5,-134 282.5,-134"/><polygon fill="none" stroke="#dddddd" points="282.5,-134 282.5,-164 399.5,-164 399.5,-134 282.5,-134"/><text text-anchor="start" x="285.1909" y="-157.2" font-family="Courier,monospace" font-size="6.00" fill="#8b0000"> &#45; </text><text text-anchor="start" x="295.9927" y="-157.2" font-family="Courier,monospace" font-size="6.00" fill="#000000">organisation</text><text text-anchor="start" x="339.1997" y="-157.2" font-family="Courier,monospace" font-weight="bold" font-size="6.00" fill="#000000"> &#160;: Organisation</text><text text-anchor="start" x="285.1909" y="-151.2" font-family="Courier,monospace" font-size="6.00" fill="#8b0000"> &#45; </text><text text-anchor="start" x="295.9927" y="-151.2" font-family="Courier,monospace" font-size="6.00" fill="#000000">person &#160;&#160;&#160;&#160;&#160;</text><text text-anchor="start" x="339.1997" y="-151.2" font-family="Courier,monospace" font-weight="bold" font-size="6.00" fill="#000000"> &#160;: Person &#160;&#160;&#160;&#160;&#160;</text><text text-anchor="start" x="285.1909" y="-145.2" font-family="Courier,monospace" font-size="6.00" fill="#8b0000"> &#45; </text><text text-anchor="start" x="295.9927" y="-145.2" font-family="Courier,monospace" font-size="6.00" fill="#000000">email &#160;&#160;&#160;&#160;&#160;&#160;</text><text text-anchor="start" x="339.1997" y="-145.2" font-family="Courier,monospace" font-weight="bold" font-size="6.00" fill="#000000"> &#160;: Email &#160;&#160;&#160;&#160;&#160;&#160;</text><text text-anchor="start" x="285.1909" y="-139.2" font-family="Courier,monospace" font-size="6.00" fill="#8b0000"> &#45; </text><text text-anchor="start" x="295.9927" y="-139.2" font-family="Courier,monospace" font-size="6.00" fill="#000000">phone &#160;&#160;&#160;&#160;&#160;&#160;</text><text text-anchor="start" x="339.1997" y="-139.2" font-family="Courier,monospace" font-weight="bold" font-size="6.00" fill="#000000"> &#160;: Phone &#160;&#160;&#160;&#160;&#160;&#160;</text></g><!-- Sender&#45;&gt;Request --><g id="edge1" class="edge"><title>Sender&#45;&gt;Request</title><path fill="none" stroke="#000000" d="M340.5,-182.2496C340.5,-193.8217 340.5,-207.5515 340.5,-219.8228"/><polygon fill="#000000" stroke="#000000" points="340.5001,-220.1082 343.7,-224.9083 340.5,-229.7082 337.3,-224.9082 340.5001,-220.1082"/></g><!-- Address --><g id="node7" class="node"><title>Address</title><polygon fill="#68afcb" stroke="transparent" points="960.5,-64 960.5,-78 1041.5,-78 1041.5,-64 960.5,-64"/><polygon fill="none" stroke="#68afcb" points="960.5,-64 960.5,-78 1041.5,-78 1041.5,-64 960.5,-64"/><text text-anchor="start" x="984.1973" y="-68.6" font-family="Courier,monospace" font-size="8.00" fill="#ffffff">Address</text><polygon fill="#dddddd" stroke="transparent" points="960.5,-4 960.5,-64 1041.5,-64 1041.5,-4 960.5,-4"/><polygon fill="none" stroke="#dddddd" points="960.5,-4 960.5,-64 1041.5,-64 1041.5,-4 960.5,-4"/><text text-anchor="start" x="963.1938" y="-57.2" font-family="Courier,monospace" font-size="6.00" fill="#8b0000"> &#45; </text><text text-anchor="start" x="973.9956" y="-57.2" font-family="Courier,monospace" font-size="6.00" fill="#000000">usage &#160;&#160;</text><text text-anchor="start" x="1002.8003" y="-57.2" font-family="Courier,monospace" font-weight="bold" font-size="6.00" fill="#000000"> &#160;: string</text><text text-anchor="start" x="963.1938" y="-51.2" font-family="Courier,monospace" font-size="6.00" fill="#8b0000"> &#45; </text><text text-anchor="start" x="973.9956" y="-51.2" font-family="Courier,monospace" font-size="6.00" fill="#000000">line1 &#160;&#160;</text><text text-anchor="start" x="1002.8003" y="-51.2" font-family="Courier,monospace" font-weight="bold" font-size="6.00" fill="#000000"> &#160;: string</text><text text-anchor="start" x="963.1938" y="-45.2" font-family="Courier,monospace" font-size="6.00" fill="#8b0000"> &#45; </text><text text-anchor="start" x="973.9956" y="-45.2" font-family="Courier,monospace" font-size="6.00" fill="#000000">line2 &#160;&#160;</text><text text-anchor="start" x="1002.8003" y="-45.2" font-family="Courier,monospace" font-weight="bold" font-size="6.00" fill="#000000"> &#160;: string</text><text text-anchor="start" x="963.1938" y="-39.2" font-family="Courier,monospace" font-size="6.00" fill="#8b0000"> &#45; </text><text text-anchor="start" x="973.9956" y="-39.2" font-family="Courier,monospace" font-size="6.00" fill="#000000">line3 &#160;&#160;</text><text text-anchor="start" x="1002.8003" y="-39.2" font-family="Courier,monospace" font-weight="bold" font-size="6.00" fill="#000000"> &#160;: string</text><text text-anchor="start" x="963.1938" y="-33.2" font-family="Courier,monospace" font-size="6.00" fill="#8b0000"> &#45; </text><text text-anchor="start" x="973.9956" y="-33.2" font-family="Courier,monospace" font-size="6.00" fill="#000000">line4 &#160;&#160;</text><text text-anchor="start" x="1002.8003" y="-33.2" font-family="Courier,monospace" font-weight="bold" font-size="6.00" fill="#000000"> &#160;: string</text><text text-anchor="start" x="963.1938" y="-27.2" font-family="Courier,monospace" font-size="6.00" fill="#8b0000"> &#45; </text><text text-anchor="start" x="973.9956" y="-27.2" font-family="Courier,monospace" font-size="6.00" fill="#000000">suburb &#160;</text><text text-anchor="start" x="1002.8003" y="-27.2" font-family="Courier,monospace" font-weight="bold" font-size="6.00" fill="#000000"> &#160;: string</text><text text-anchor="start" x="963.1938" y="-21.2" font-family="Courier,monospace" font-size="6.00" fill="#8b0000"> &#45; </text><text text-anchor="start" x="973.9956" y="-21.2" font-family="Courier,monospace" font-size="6.00" fill="#000000">postcode</text><text text-anchor="start" x="1002.8003" y="-21.2" font-family="Courier,monospace" font-weight="bold" font-size="6.00" fill="#000000"> &#160;: string</text><text text-anchor="start" x="963.1938" y="-15.2" font-family="Courier,monospace" font-size="6.00" fill="#8b0000"> &#45; </text><text text-anchor="start" x="973.9956" y="-15.2" font-family="Courier,monospace" font-size="6.00" fill="#000000">state &#160;&#160;</text><text text-anchor="start" x="1002.8003" y="-15.2" font-family="Courier,monospace" font-weight="bold" font-size="6.00" fill="#000000"> &#160;: string</text><text text-anchor="start" x="963.1938" y="-9.2" font-family="Courier,monospace" font-size="6.00" fill="#8b0000"> &#45; </text><text text-anchor="start" x="973.9956" y="-9.2" font-family="Courier,monospace" font-size="6.00" fill="#000000">country </text><text text-anchor="start" x="1002.8003" y="-9.2" font-family="Courier,monospace" font-weight="bold" font-size="6.00" fill="#000000"> &#160;: string</text></g><!-- Address&#45;&gt;Member --><g id="edge8" class="edge"><title>Address&#45;&gt;Member</title><path fill="none" stroke="#000000" d="M951.9897,-67.372C941.7289,-72.5212 930.8658,-77.6622 920.5,-82 874.2139,-101.3697 820.9291,-119.1477 777.9444,-132.4213"/><polygon fill="#000000" stroke="#000000" points="777.8338,-132.4552 774.1827,-136.9217 768.6555,-135.2693 772.3066,-130.8028 777.8338,-132.4552"/></g><!-- Organisation --><g id="node8" class="node"><title>Organisation</title><polygon fill="#68afcb" stroke="transparent" points="8.5,-43 8.5,-57 89.5,-57 89.5,-43 8.5,-43"/><polygon fill="none" stroke="#68afcb" points="8.5,-43 8.5,-57 89.5,-57 89.5,-43 8.5,-43"/><text text-anchor="start" x="20.1953" y="-47.6" font-family="Courier,monospace" font-size="8.00" fill="#ffffff">Organisation</text><polygon fill="#dddddd" stroke="transparent" points="8.5,-25 8.5,-43 89.5,-43 89.5,-25 8.5,-25"/><polygon fill="none" stroke="#dddddd" points="8.5,-25 8.5,-43 89.5,-43 89.5,-25 8.5,-25"/><text text-anchor="start" x="11.1938" y="-36.2" font-family="Courier,monospace" font-size="6.00" fill="#8b0000"> &#45; </text><text text-anchor="start" x="21.9956" y="-36.2" font-family="Courier,monospace" font-size="6.00" fill="#000000">typeCode</text><text text-anchor="start" x="50.8003" y="-36.2" font-family="Courier,monospace" font-weight="bold" font-size="6.00" fill="#000000"> &#160;: string</text><text text-anchor="start" x="11.1938" y="-30.2" font-family="Courier,monospace" font-size="6.00" fill="#8b0000"> &#45; </text><text text-anchor="start" x="21.9956" y="-30.2" font-family="Courier,monospace" font-size="6.00" fill="#000000">name &#160;&#160;&#160;</text><text text-anchor="start" x="50.8003" y="-30.2" font-family="Courier,monospace" font-weight="bold" font-size="6.00" fill="#000000"> &#160;: string</text></g><!-- Organisation&#45;&gt;Receiver --><g id="edge4" class="edge"><title>Organisation&#45;&gt;Receiver</title><path fill="none" stroke="#000000" d="M54.2482,-61.0315C59.6045,-79.6976 67.6384,-107.6945 73.5969,-128.4589"/><polygon fill="#000000" stroke="#000000" points="73.6048,-128.4868 78.0047,-132.2179 76.2528,-137.7144 71.853,-133.9832 73.6048,-128.4868"/></g><!-- Organisation&#45;&gt;Sender --><g id="edge10" class="edge"><title>Organisation&#45;&gt;Sender</title><path fill="none" stroke="#000000" d="M84.5476,-61.1027C97.8447,-68.1447 113.1652,-75.8284 127.5,-82 172.1267,-101.2133 223.5471,-119.1902 264.6842,-132.6136"/><polygon fill="#000000" stroke="#000000" points="264.7019,-132.6193 270.2548,-131.0554 273.834,-135.5797 268.2811,-137.1435 264.7019,-132.6193"/></g><!-- Person --><g id="node9" class="node"><title>Person</title><polygon fill="#68afcb" stroke="transparent" points="493.5,-49 493.5,-63 581.5,-63 581.5,-49 493.5,-49"/><polygon fill="none" stroke="#68afcb" points="493.5,-49 493.5,-63 581.5,-63 581.5,-49 493.5,-49"/><text text-anchor="start" x="523.0977" y="-53.6" font-family="Courier,monospace" font-size="8.00" fill="#ffffff">Person</text><polygon fill="#dddddd" stroke="transparent" points="493.5,-19 493.5,-49 581.5,-49 581.5,-19 493.5,-19"/><polygon fill="none" stroke="#dddddd" points="493.5,-19 493.5,-49 581.5,-49 581.5,-19 493.5,-19"/><text text-anchor="start" x="496.0933" y="-42.2" font-family="Courier,monospace" font-size="6.00" fill="#8b0000"> &#45; </text><text text-anchor="start" x="506.895" y="-42.2" font-family="Courier,monospace" font-size="6.00" fill="#000000">familyName</text><text text-anchor="start" x="542.9009" y="-42.2" font-family="Courier,monospace" font-weight="bold" font-size="6.00" fill="#000000"> &#160;: string</text><text text-anchor="start" x="496.0933" y="-36.2" font-family="Courier,monospace" font-size="6.00" fill="#8b0000"> &#45; </text><text text-anchor="start" x="506.895" y="-36.2" font-family="Courier,monospace" font-size="6.00" fill="#000000">givenName </text><text text-anchor="start" x="542.9009" y="-36.2" font-family="Courier,monospace" font-weight="bold" font-size="6.00" fill="#000000"> &#160;: string</text><text text-anchor="start" x="496.0933" y="-30.2" font-family="Courier,monospace" font-size="6.00" fill="#8b0000"> &#45; </text><text text-anchor="start" x="506.895" y="-30.2" font-family="Courier,monospace" font-size="6.00" fill="#000000">otherName </text><text text-anchor="start" x="542.9009" y="-30.2" font-family="Courier,monospace" font-weight="bold" font-size="6.00" fill="#000000"> &#160;: string</text><text text-anchor="start" x="496.0933" y="-24.2" font-family="Courier,monospace" font-size="6.00" fill="#8b0000"> &#45; </text><text text-anchor="start" x="506.895" y="-24.2" font-family="Courier,monospace" font-size="6.00" fill="#000000">position &#160;</text><text text-anchor="start" x="542.9009" y="-24.2" font-family="Courier,monospace" font-weight="bold" font-size="6.00" fill="#000000"> &#160;: string</text></g><!-- Person&#45;&gt;Member --><g id="edge7" class="edge"><title>Person&#45;&gt;Member</title><path fill="none" stroke="#000000" d="M573.5796,-67.0953C587.2803,-77.0046 603.4628,-88.7089 619.5089,-100.3146"/><polygon fill="#000000" stroke="#000000" points="619.585,-100.3696 625.3497,-100.5898 627.3637,-105.9957 621.599,-105.7756 619.585,-100.3696"/></g><!-- Person&#45;&gt;Sender --><g id="edge11" class="edge"><title>Person&#45;&gt;Sender</title><path fill="none" stroke="#000000" d="M492.7977,-67.0953C463.4318,-84.2378 424.8635,-106.7523 393.8875,-124.8347"/><polygon fill="#000000" stroke="#000000" points="393.6568,-124.9694 391.1247,-130.1529 385.366,-129.8092 387.8981,-124.6257 393.6568,-124.9694"/></g><!-- Email --><g id="node10" class="node"><title>Email</title><polygon fill="#68afcb" stroke="transparent" points="167.5,-43 167.5,-57 252.5,-57 252.5,-43 167.5,-43"/><polygon fill="none" stroke="#68afcb" points="167.5,-43 167.5,-57 252.5,-57 252.5,-43 167.5,-43"/><text text-anchor="start" x="197.998" y="-47.6" font-family="Courier,monospace" font-size="8.00" fill="#ffffff">Email</text><polygon fill="#dddddd" stroke="transparent" points="167.5,-25 167.5,-43 252.5,-43 252.5,-25 167.5,-25"/><polygon fill="none" stroke="#dddddd" points="167.5,-25 167.5,-43 252.5,-43 252.5,-25 167.5,-25"/><text text-anchor="start" x="170.3936" y="-36.2" font-family="Courier,monospace" font-size="6.00" fill="#8b0000"> &#45; </text><text text-anchor="start" x="181.1953" y="-36.2" font-family="Courier,monospace" font-size="6.00" fill="#000000">usageCode</text><text text-anchor="start" x="213.6006" y="-36.2" font-family="Courier,monospace" font-weight="bold" font-size="6.00" fill="#000000"> &#160;: string</text><text text-anchor="start" x="170.3936" y="-30.2" font-family="Courier,monospace" font-size="6.00" fill="#8b0000"> &#45; </text><text text-anchor="start" x="181.1953" y="-30.2" font-family="Courier,monospace" font-size="6.00" fill="#000000">address &#160;</text><text text-anchor="start" x="213.6006" y="-30.2" font-family="Courier,monospace" font-weight="bold" font-size="6.00" fill="#000000"> &#160;: string</text></g><!-- Email&#45;&gt;Sender --><g id="edge12" class="edge"><title>Email&#45;&gt;Sender</title><path fill="none" stroke="#000000" d="M232.3185,-61.0315C251.8131,-78.1451 280.2422,-103.1019 303.0651,-123.1373"/><polygon fill="#000000" stroke="#000000" points="303.3546,-123.3914 309.073,-124.1533 310.5691,-129.7248 304.8508,-128.963 303.3546,-123.3914"/></g><!-- Phone --><g id="node11" class="node"><title>Phone</title><polygon fill="#68afcb" stroke="transparent" points="330.5,-43 330.5,-57 415.5,-57 415.5,-43 330.5,-43"/><polygon fill="none" stroke="#68afcb" points="330.5,-43 330.5,-57 415.5,-57 415.5,-43 330.5,-43"/><text text-anchor="start" x="360.998" y="-47.6" font-family="Courier,monospace" font-size="8.00" fill="#ffffff">Phone</text><polygon fill="#dddddd" stroke="transparent" points="330.5,-25 330.5,-43 415.5,-43 415.5,-25 330.5,-25"/><polygon fill="none" stroke="#dddddd" points="330.5,-25 330.5,-43 415.5,-43 415.5,-25 330.5,-25"/><text text-anchor="start" x="333.3936" y="-36.2" font-family="Courier,monospace" font-size="6.00" fill="#8b0000"> &#45; </text><text text-anchor="start" x="344.1953" y="-36.2" font-family="Courier,monospace" font-size="6.00" fill="#000000">usageCode</text><text text-anchor="start" x="376.6006" y="-36.2" font-family="Courier,monospace" font-weight="bold" font-size="6.00" fill="#000000"> &#160;: string</text><text text-anchor="start" x="333.3936" y="-30.2" font-family="Courier,monospace" font-size="6.00" fill="#8b0000"> &#45; </text><text text-anchor="start" x="344.1953" y="-30.2" font-family="Courier,monospace" font-size="6.00" fill="#000000">number &#160;&#160;</text><text text-anchor="start" x="376.6006" y="-30.2" font-family="Courier,monospace" font-weight="bold" font-size="6.00" fill="#000000"> &#160;: string</text></g><!-- Phone&#45;&gt;Sender --><g id="edge13" class="edge"><title>Phone&#45;&gt;Sender</title><path fill="none" stroke="#000000" d="M366.926,-61.0315C362.3917,-77.3266 355.8787,-100.7327 350.4533,-120.2303"/><polygon fill="#000000" stroke="#000000" points="350.385,-120.4762 352.181,-125.9584 347.8114,-129.7248 346.0153,-124.2426 350.385,-120.4762"/></g></g></svg>