<?xml version="1.0" encoding="UTF-8" standalone="no"?><!DOCTYPE svg PUBLIC "-//W3C//DTD SVG 1.1//EN" "http://www.w3.org/Graphics/SVG/1.1/DTD/svg11.dtd"><!-- Generated by graphviz version 2.40.1 (20161225.0304) --><!-- Title: G Pages: 1 --><svg width="116pt" height="178pt" viewBox="0.00 0.00 116.00 178.00" xmlns="http://www.w3.org/2000/svg" xmlns:xlink="http://www.w3.org/1999/xlink"><g id="graph0" class="graph" transform="scale(1 1) rotate(0) translate(4 174)"><title>G</title><polygon fill="#ffffff" stroke="transparent" points="-4,4 -4,-174 112,-174 112,4 -4,4"/><!-- Person --><g id="node1" class="node"><title>Person</title><polygon fill="#ed6a5a" stroke="transparent" points="8,-152 8,-166 100,-166 100,-152 8,-152"/><polygon fill="none" stroke="#ed6a5a" points="8,-152 8,-166 100,-166 100,-152 8,-152"/><text text-anchor="start" x="39.5977" y="-156.6" font-family="Courier,monospace" font-size="8.00" fill="#ffffff">Person</text><polygon fill="#dddddd" stroke="transparent" points="8,-110 8,-152 100,-152 100,-110 8,-110"/><polygon fill="none" stroke="#dddddd" points="8,-110 8,-152 100,-152 100,-110 8,-110"/><text text-anchor="start" x="10.793" y="-145.2" font-family="Courier,monospace" font-size="6.00" fill="#8b0000"> &#45; </text><text text-anchor="start" x="21.5947" y="-145.2" font-family="Courier,monospace" font-size="6.00" fill="#000000">tfn &#160;&#160;&#160;&#160;&#160;&#160;</text><text text-anchor="start" x="57.6006" y="-145.2" font-family="Courier,monospace" font-weight="bold" font-size="6.00" fill="#000000"> &#160;: Numeric</text><text text-anchor="start" x="10.793" y="-139.2" font-family="Courier,monospace" font-size="6.00" fill="#8b0000"> &#45; </text><text text-anchor="start" x="21.5947" y="-139.2" font-family="Courier,monospace" font-size="6.00" fill="#000000">birthDate </text><text text-anchor="start" x="57.6006" y="-139.2" font-family="Courier,monospace" font-weight="bold" font-size="6.00" fill="#000000"> &#160;: string </text><text text-anchor="start" x="10.793" y="-133.2" font-family="Courier,monospace" font-size="6.00" fill="#8b0000"> &#45; </text><text text-anchor="start" x="21.5947" y="-133.2" font-family="Courier,monospace" font-size="6.00" fill="#000000">familyName</text><text text-anchor="start" x="57.6006" y="-133.2" font-family="Courier,monospace" font-weight="bold" font-size="6.00" fill="#000000"> &#160;: string </text><text text-anchor="start" x="10.793" y="-127.2" font-family="Courier,monospace" font-size="6.00" fill="#8b0000"> &#45; </text><text text-anchor="start" x="21.5947" y="-127.2" font-family="Courier,monospace" font-size="6.00" fill="#000000">givenName </text><text text-anchor="start" x="57.6006" y="-127.2" font-family="Courier,monospace" font-weight="bold" font-size="6.00" fill="#000000"> &#160;: string </text><text text-anchor="start" x="10.793" y="-121.2" font-family="Courier,monospace" font-size="6.00" fill="#8b0000"> &#45; </text><text text-anchor="start" x="21.5947" y="-121.2" font-family="Courier,monospace" font-size="6.00" fill="#000000">otherName </text><text text-anchor="start" x="57.6006" y="-121.2" font-family="Courier,monospace" font-weight="bold" font-size="6.00" fill="#000000"> &#160;: string </text><text text-anchor="start" x="10.793" y="-115.2" font-family="Courier,monospace" font-size="6.00" fill="#8b0000"> &#45; </text><text text-anchor="start" x="21.5947" y="-115.2" font-family="Courier,monospace" font-size="6.00" fill="#000000">address &#160;&#160;</text><text text-anchor="start" x="57.6006" y="-115.2" font-family="Courier,monospace" font-weight="bold" font-size="6.00" fill="#000000"> &#160;: Address</text></g><!-- Address --><g id="node2" class="node"><title>Address</title><polygon fill="#68afcb" stroke="transparent" points="14,-64 14,-78 95,-78 95,-64 14,-64"/><polygon fill="none" stroke="#68afcb" points="14,-64 14,-78 95,-78 95,-64 14,-64"/><text text-anchor="start" x="37.6973" y="-68.6" font-family="Courier,monospace" font-size="8.00" fill="#ffffff">Address</text><polygon fill="#dddddd" stroke="transparent" points="14,-4 14,-64 95,-64 95,-4 14,-4"/><polygon fill="none" stroke="#dddddd" points="14,-4 14,-64 95,-64 95,-4 14,-4"/><text text-anchor="start" x="16.6938" y="-57.2" font-family="Courier,monospace" font-size="6.00" fill="#8b0000"> &#45; </text><text text-anchor="start" x="27.4956" y="-57.2" font-family="Courier,monospace" font-size="6.00" fill="#000000">usage &#160;&#160;</text><text text-anchor="start" x="56.3003" y="-57.2" font-family="Courier,monospace" font-weight="bold" font-size="6.00" fill="#000000"> &#160;: string</text><text text-anchor="start" x="16.6938" y="-51.2" font-family="Courier,monospace" font-size="6.00" fill="#8b0000"> &#45; </text><text text-anchor="start" x="27.4956" y="-51.2" font-family="Courier,monospace" font-size="6.00" fill="#000000">line1 &#160;&#160;</text><text text-anchor="start" x="56.3003" y="-51.2" font-family="Courier,monospace" font-weight="bold" font-size="6.00" fill="#000000"> &#160;: string</text><text text-anchor="start" x="16.6938" y="-45.2" font-family="Courier,monospace" font-size="6.00" fill="#8b0000"> &#45; </text><text text-anchor="start" x="27.4956" y="-45.2" font-family="Courier,monospace" font-size="6.00" fill="#000000">line2 &#160;&#160;</text><text text-anchor="start" x="56.3003" y="-45.2" font-family="Courier,monospace" font-weight="bold" font-size="6.00" fill="#000000"> &#160;: string</text><text text-anchor="start" x="16.6938" y="-39.2" font-family="Courier,monospace" font-size="6.00" fill="#8b0000"> &#45; </text><text text-anchor="start" x="27.4956" y="-39.2" font-family="Courier,monospace" font-size="6.00" fill="#000000">line3 &#160;&#160;</text><text text-anchor="start" x="56.3003" y="-39.2" font-family="Courier,monospace" font-weight="bold" font-size="6.00" fill="#000000"> &#160;: string</text><text text-anchor="start" x="16.6938" y="-33.2" font-family="Courier,monospace" font-size="6.00" fill="#8b0000"> &#45; </text><text text-anchor="start" x="27.4956" y="-33.2" font-family="Courier,monospace" font-size="6.00" fill="#000000">line4 &#160;&#160;</text><text text-anchor="start" x="56.3003" y="-33.2" font-family="Courier,monospace" font-weight="bold" font-size="6.00" fill="#000000"> &#160;: string</text><text text-anchor="start" x="16.6938" y="-27.2" font-family="Courier,monospace" font-size="6.00" fill="#8b0000"> &#45; </text><text text-anchor="start" x="27.4956" y="-27.2" font-family="Courier,monospace" font-size="6.00" fill="#000000">suburb &#160;</text><text text-anchor="start" x="56.3003" y="-27.2" font-family="Courier,monospace" font-weight="bold" font-size="6.00" fill="#000000"> &#160;: string</text><text text-anchor="start" x="16.6938" y="-21.2" font-family="Courier,monospace" font-size="6.00" fill="#8b0000"> &#45; </text><text text-anchor="start" x="27.4956" y="-21.2" font-family="Courier,monospace" font-size="6.00" fill="#000000">postcode</text><text text-anchor="start" x="56.3003" y="-21.2" font-family="Courier,monospace" font-weight="bold" font-size="6.00" fill="#000000"> &#160;: string</text><text text-anchor="start" x="16.6938" y="-15.2" font-family="Courier,monospace" font-size="6.00" fill="#8b0000"> &#45; </text><text text-anchor="start" x="27.4956" y="-15.2" font-family="Courier,monospace" font-size="6.00" fill="#000000">state &#160;&#160;</text><text text-anchor="start" x="56.3003" y="-15.2" font-family="Courier,monospace" font-weight="bold" font-size="6.00" fill="#000000"> &#160;: string</text><text text-anchor="start" x="16.6938" y="-9.2" font-family="Courier,monospace" font-size="6.00" fill="#8b0000"> &#45; </text><text text-anchor="start" x="27.4956" y="-9.2" font-family="Courier,monospace" font-size="6.00" fill="#000000">country </text><text text-anchor="start" x="56.3003" y="-9.2" font-family="Courier,monospace" font-weight="bold" font-size="6.00" fill="#000000"> &#160;: string</text></g><!-- Address&#45;&gt;Person --><g id="edge1" class="edge"><title>Address&#45;&gt;Person</title><path fill="none" stroke="#000000" d="M54,-82.1367C54,-86.7339 54,-91.4214 54,-96.0289"/><polygon fill="#000000" stroke="#000000" points="54.0001,-96.3214 57.2,-101.1214 54,-105.9214 50.8,-101.1214 54.0001,-96.3214"/></g></g></svg>