<?xml version="1.0" encoding="UTF-8" standalone="no"?><!DOCTYPE svg PUBLIC "-//W3C//DTD SVG 1.1//EN" "http://www.w3.org/Graphics/SVG/1.1/DTD/svg11.dtd"><!-- Generated by graphviz version 2.40.1 (20161225.0304) --><!-- Title: G Pages: 1 --><svg width="331pt" height="476pt" viewBox="0.00 0.00 331.00 476.00" xmlns="http://www.w3.org/2000/svg" xmlns:xlink="http://www.w3.org/1999/xlink"><g id="graph0" class="graph" transform="scale(1 1) rotate(0) translate(4 472)"><title>G</title><polygon fill="#ffffff" stroke="transparent" points="-4,4 -4,-472 327,-472 327,4 -4,4"/><!-- Shuck --><g id="node1" class="node"><title>Shuck</title><polygon fill="#ed6a5a" stroke="transparent" points="52,-450 52,-464 162,-464 162,-450 52,-450"/><polygon fill="none" stroke="#ed6a5a" points="52,-450 52,-464 162,-464 162,-450 52,-450"/><text text-anchor="start" x="94.998" y="-454.6" font-family="Courier,monospace" font-size="8.00" fill="#ffffff">Shuck</text><polygon fill="#dddddd" stroke="transparent" points="52,-426 52,-450 162,-450 162,-426 52,-426"/><polygon fill="none" stroke="#dddddd" points="52,-426 52,-450 162,-450 162,-426 52,-426"/><text text-anchor="start" x="54.7915" y="-443.2" font-family="Courier,monospace" font-size="6.00" fill="#8b0000"> &#45; </text><text text-anchor="start" x="65.5933" y="-443.2" font-family="Courier,monospace" font-size="6.00" fill="#000000">model &#160;&#160;&#160;&#160;</text><text text-anchor="start" x="101.5991" y="-443.2" font-family="Courier,monospace" font-weight="bold" font-size="6.00" fill="#000000"> &#160;: Model[] &#160;&#160;&#160;&#160;</text><text text-anchor="start" x="54.7915" y="-437.2" font-family="Courier,monospace" font-size="6.00" fill="#8b0000"> &#45; </text><text text-anchor="start" x="65.5933" y="-437.2" font-family="Courier,monospace" font-size="6.00" fill="#000000">definition</text><text text-anchor="start" x="101.5991" y="-437.2" font-family="Courier,monospace" font-weight="bold" font-size="6.00" fill="#000000"> &#160;: Definition[]</text><text text-anchor="start" x="54.7915" y="-431.2" font-family="Courier,monospace" font-size="6.00" fill="#8b0000"> &#45; </text><text text-anchor="start" x="65.5933" y="-431.2" font-family="Courier,monospace" font-size="6.00" fill="#000000">release &#160;&#160;</text><text text-anchor="start" x="101.5991" y="-431.2" font-family="Courier,monospace" font-weight="bold" font-size="6.00" fill="#000000"> &#160;: Release[] &#160;&#160;</text></g><!-- Model --><g id="node2" class="node"><title>Model</title><polygon fill="#68afcb" stroke="transparent" points="112,-320 112,-334 186,-334 186,-320 112,-320"/><polygon fill="none" stroke="#68afcb" points="112,-320 112,-334 186,-334 186,-320 112,-320"/><text text-anchor="start" x="136.998" y="-324.6" font-family="Courier,monospace" font-size="8.00" fill="#ffffff">Model</text><polygon fill="#dddddd" stroke="transparent" points="112,-296 112,-320 186,-320 186,-296 112,-296"/><polygon fill="none" stroke="#dddddd" points="112,-296 112,-320 186,-320 186,-296 112,-296"/><text text-anchor="start" x="114.7944" y="-313.2" font-family="Courier,monospace" font-size="6.00" fill="#8b0000"> &#45; </text><text text-anchor="start" x="125.5962" y="-313.2" font-family="Courier,monospace" font-size="6.00" fill="#000000">name </text><text text-anchor="start" x="143.5991" y="-313.2" font-family="Courier,monospace" font-weight="bold" font-size="6.00" fill="#000000"> &#160;: string </text><text text-anchor="start" x="114.7944" y="-307.2" font-family="Courier,monospace" font-size="6.00" fill="#8b0000"> &#45; </text><text text-anchor="start" x="125.5962" y="-307.2" font-family="Courier,monospace" font-size="6.00" fill="#000000">root </text><text text-anchor="start" x="143.5991" y="-307.2" font-family="Courier,monospace" font-weight="bold" font-size="6.00" fill="#000000"> &#160;: Class &#160;</text><text text-anchor="start" x="114.7944" y="-301.2" font-family="Courier,monospace" font-size="6.00" fill="#8b0000"> &#45; </text><text text-anchor="start" x="125.5962" y="-301.2" font-family="Courier,monospace" font-size="6.00" fill="#000000">class</text><text text-anchor="start" x="143.5991" y="-301.2" font-family="Courier,monospace" font-weight="bold" font-size="6.00" fill="#000000"> &#160;: Class[]</text></g><!-- Model&#45;&gt;Shuck --><g id="edge1" class="edge"><title>Model&#45;&gt;Shuck</title><path fill="none" stroke="#000000" d="M141.4912,-338.2414C134.802,-358.9461 124.9457,-389.4537 117.4805,-412.5603"/><polygon fill="#000000" stroke="#000000" points="117.3952,-412.8247 118.9645,-418.3761 114.4438,-421.9598 112.8744,-416.4085 117.3952,-412.8247"/></g><!-- Release --><g id="node7" class="node"><title>Release</title><polygon fill="#68afcb" stroke="transparent" points="209,-379 209,-393 315,-393 315,-379 209,-379"/><polygon fill="none" stroke="#68afcb" points="209,-379 209,-393 315,-393 315,-379 209,-379"/><text text-anchor="start" x="245.1973" y="-383.6" font-family="Courier,monospace" font-size="8.00" fill="#ffffff">Release</text><polygon fill="#dddddd" stroke="transparent" points="209,-367 209,-379 315,-379 315,-367 209,-367"/><polygon fill="none" stroke="#dddddd" points="209,-367 209,-379 315,-379 315,-367 209,-367"/><text text-anchor="start" x="211.5918" y="-372.2" font-family="Courier,monospace" font-size="6.00" fill="#8b0000"> &#45; </text><text text-anchor="start" x="222.3936" y="-372.2" font-family="Courier,monospace" font-size="6.00" fill="#000000">generatedModel</text><text text-anchor="start" x="272.8018" y="-372.2" font-family="Courier,monospace" font-weight="bold" font-size="6.00" fill="#000000"> &#160;: Model[]</text></g><!-- Model&#45;&gt;Release --><g id="edge11" class="edge"><title>Model&#45;&gt;Release</title><path fill="none" stroke="#000000" d="M189.1577,-338.0996C199.8696,-344.2613 211.4389,-350.9162 222.1349,-357.0688"/><polygon fill="#000000" stroke="#000000" points="222.1712,-357.0896 227.9275,-356.7091 230.4927,-361.8763 224.7364,-362.2568 222.1712,-357.0896"/></g><!-- Class --><g id="node3" class="node"><title>Class</title><polygon fill="#68afcb" stroke="transparent" points="83,-250 83,-264 215,-264 215,-250 83,-250"/><polygon fill="none" stroke="#68afcb" points="83,-250 83,-264 215,-264 215,-250 83,-250"/><text text-anchor="start" x="136.998" y="-254.6" font-family="Courier,monospace" font-size="8.00" fill="#ffffff">Class</text><polygon fill="#dddddd" stroke="transparent" points="83,-226 83,-250 215,-250 215,-226 83,-226"/><polygon fill="none" stroke="#dddddd" points="83,-226 83,-250 215,-250 215,-226 83,-226"/><text text-anchor="start" x="85.9897" y="-243.2" font-family="Courier,monospace" font-size="6.00" fill="#8b0000"> &#45; </text><text text-anchor="start" x="96.7915" y="-243.2" font-family="Courier,monospace" font-size="6.00" fill="#000000">name &#160;&#160;&#160;&#160;&#160;&#160;&#160;&#160;&#160;&#160;&#160;</text><text text-anchor="start" x="154.4009" y="-243.2" font-family="Courier,monospace" font-weight="bold" font-size="6.00" fill="#000000"> &#160;: string &#160;&#160;&#160;&#160;&#160;</text><text text-anchor="start" x="85.9897" y="-237.2" font-family="Courier,monospace" font-size="6.00" fill="#8b0000"> &#45; </text><text text-anchor="start" x="96.7915" y="-237.2" font-family="Courier,monospace" font-size="6.00" fill="#000000">memberClass &#160;&#160;&#160;&#160;</text><text text-anchor="start" x="154.4009" y="-237.2" font-family="Courier,monospace" font-weight="bold" font-size="6.00" fill="#000000"> &#160;: Class[] &#160;&#160;&#160;&#160;</text><text text-anchor="start" x="85.9897" y="-231.2" font-family="Courier,monospace" font-size="6.00" fill="#8b0000"> &#45; </text><text text-anchor="start" x="96.7915" y="-231.2" font-family="Courier,monospace" font-size="6.00" fill="#000000">memberDefinition</text><text text-anchor="start" x="154.4009" y="-231.2" font-family="Courier,monospace" font-weight="bold" font-size="6.00" fill="#000000"> &#160;: Definition[]</text></g><!-- Class&#45;&gt;Model --><g id="edge4" class="edge"><title>Class&#45;&gt;Model</title><path fill="none" stroke="#000000" d="M126.9434,-268.309C126.0291,-272.6317 125.6401,-277.2231 125.7766,-281.7745"/><polygon fill="#000000" stroke="#000000" points="125.8049,-282.0185 129.5383,-286.4164 126.9147,-291.5541 123.1812,-287.1562 125.8049,-282.0185"/></g><!-- Class&#45;&gt;Model --><g id="edge5" class="edge"><title>Class&#45;&gt;Model</title><path fill="none" stroke="#000000" d="M171.0566,-268.309C171.9709,-272.6317 172.3599,-277.2231 172.2234,-281.7745"/><polygon fill="#000000" stroke="#000000" points="172.1951,-282.0185 174.8188,-287.1562 171.0853,-291.5541 168.4617,-286.4164 172.1951,-282.0185"/></g><!-- Class&#45;&gt;Class --><g id="edge6" class="edge"><title>Class&#45;&gt;Class</title><path fill="none" stroke="#000000" d="M223.1426,-232.0801C256.3125,-230.8496 285,-235.1563 285,-245 285,-253.844 261.8437,-258.2185 233.085,-258.1235"/><polygon fill="#000000" stroke="#000000" points="232.7406,-258.1165 227.876,-261.2176 223.1426,-257.9199 228.0071,-254.8189 232.7406,-258.1165"/></g><!-- Definition --><g id="node4" class="node"><title>Definition</title><polygon fill="#68afcb" stroke="transparent" points="8,-180 8,-194 122,-194 122,-180 8,-180"/><polygon fill="none" stroke="#68afcb" points="8,-180 8,-194 122,-194 122,-180 8,-180"/><text text-anchor="start" x="40.9961" y="-184.6" font-family="Courier,monospace" font-size="8.00" fill="#ffffff">Definition</text><polygon fill="#dddddd" stroke="transparent" points="8,-132 8,-180 122,-180 122,-132 8,-132"/><polygon fill="none" stroke="#dddddd" points="8,-132 8,-180 122,-180 122,-132 8,-132"/><text text-anchor="start" x="10.9912" y="-173.2" font-family="Courier,monospace" font-size="6.00" fill="#8b0000"> &#45; </text><text text-anchor="start" x="21.793" y="-173.2" font-family="Courier,monospace" font-size="6.00" fill="#000000">name &#160;&#160;&#160;&#160;&#160;&#160;&#160;</text><text text-anchor="start" x="65" y="-173.2" font-family="Courier,monospace" font-weight="bold" font-size="6.00" fill="#000000"> &#160;: string &#160;&#160;&#160;&#160;</text><text text-anchor="start" x="10.9912" y="-167.2" font-family="Courier,monospace" font-size="6.00" fill="#8b0000"> &#45; </text><text text-anchor="start" x="21.793" y="-167.2" font-family="Courier,monospace" font-size="6.00" fill="#000000">id &#160;&#160;&#160;&#160;&#160;&#160;&#160;&#160;&#160;</text><text text-anchor="start" x="65" y="-167.2" font-family="Courier,monospace" font-weight="bold" font-size="6.00" fill="#000000"> &#160;: string &#160;&#160;&#160;&#160;</text><text text-anchor="start" x="10.9912" y="-161.2" font-family="Courier,monospace" font-size="6.00" fill="#8b0000"> &#45; </text><text text-anchor="start" x="21.793" y="-161.2" font-family="Courier,monospace" font-size="6.00" fill="#000000">definition &#160;</text><text text-anchor="start" x="65" y="-161.2" font-family="Courier,monospace" font-weight="bold" font-size="6.00" fill="#000000"> &#160;: string &#160;&#160;&#160;&#160;</text><text text-anchor="start" x="10.9912" y="-155.2" font-family="Courier,monospace" font-size="6.00" fill="#8b0000"> &#45; </text><text text-anchor="start" x="21.793" y="-155.2" font-family="Courier,monospace" font-size="6.00" fill="#000000">guidance &#160;&#160;&#160;</text><text text-anchor="start" x="65" y="-155.2" font-family="Courier,monospace" font-weight="bold" font-size="6.00" fill="#000000"> &#160;: string &#160;&#160;&#160;&#160;</text><text text-anchor="start" x="10.9912" y="-149.2" font-family="Courier,monospace" font-size="6.00" fill="#8b0000"> &#45; </text><text text-anchor="start" x="21.793" y="-149.2" font-family="Courier,monospace" font-size="6.00" fill="#000000">enumerations</text><text text-anchor="start" x="65" y="-149.2" font-family="Courier,monospace" font-weight="bold" font-size="6.00" fill="#000000"> &#160;: string[] &#160;&#160;</text><text text-anchor="start" x="10.9912" y="-143.2" font-family="Courier,monospace" font-size="6.00" fill="#8b0000"> &#45; </text><text text-anchor="start" x="21.793" y="-143.2" font-family="Courier,monospace" font-size="6.00" fill="#000000">facets &#160;&#160;&#160;&#160;&#160;</text><text text-anchor="start" x="65" y="-143.2" font-family="Courier,monospace" font-weight="bold" font-size="6.00" fill="#000000"> &#160;: NameValue[]</text><text text-anchor="start" x="10.9912" y="-137.2" font-family="Courier,monospace" font-size="6.00" fill="#8b0000"> &#45; </text><text text-anchor="start" x="21.793" y="-137.2" font-family="Courier,monospace" font-size="6.00" fill="#000000">syntax &#160;&#160;&#160;&#160;&#160;</text><text text-anchor="start" x="65" y="-137.2" font-family="Courier,monospace" font-weight="bold" font-size="6.00" fill="#000000"> &#160;: Syntax[] &#160;&#160;</text></g><!-- Definition&#45;&gt;Shuck --><g id="edge2" class="edge"><title>Definition&#45;&gt;Shuck</title><path fill="none" stroke="#000000" d="M50.3253,-198.0387C47.7011,-205.797 45.3689,-214.0716 44,-222 40.5215,-242.1464 40.5215,-247.8536 44,-268 53.0935,-320.6671 76.3564,-378.4278 91.9244,-413.1845"/><polygon fill="#000000" stroke="#000000" points="91.9272,-413.1908 96.8261,-416.2374 95.898,-421.9311 90.9992,-418.8846 91.9272,-413.1908"/></g><!-- Definition&#45;&gt;Class --><g id="edge7" class="edge"><title>Definition&#45;&gt;Class</title><path fill="none" stroke="#000000" d="M101.1111,-198.2513C106.8639,-203.8672 112.7672,-209.6298 118.3775,-215.1066"/><polygon fill="#000000" stroke="#000000" points="118.4243,-215.1523 124.0944,-216.2154 125.2938,-221.8582 119.6237,-220.7951 118.4243,-215.1523"/></g><!-- NameValue --><g id="node5" class="node"><title>NameValue</title><polygon fill="#68afcb" stroke="transparent" points="30,-22 30,-36 100,-36 100,-22 30,-22"/><polygon fill="none" stroke="#68afcb" points="30,-22 30,-36 100,-36 100,-22 30,-22"/><text text-anchor="start" x="43.3965" y="-26.6" font-family="Courier,monospace" font-size="8.00" fill="#ffffff">NameValue</text><polygon fill="#dddddd" stroke="transparent" points="30,-4 30,-22 100,-22 100,-4 30,-4"/><polygon fill="none" stroke="#dddddd" points="30,-4 30,-22 100,-22 100,-4 30,-4"/><text text-anchor="start" x="32.5947" y="-15.2" font-family="Courier,monospace" font-size="6.00" fill="#8b0000"> &#45; </text><text text-anchor="start" x="43.3965" y="-15.2" font-family="Courier,monospace" font-size="6.00" fill="#000000">name </text><text text-anchor="start" x="61.3994" y="-15.2" font-family="Courier,monospace" font-weight="bold" font-size="6.00" fill="#000000"> &#160;: string</text><text text-anchor="start" x="32.5947" y="-9.2" font-family="Courier,monospace" font-size="6.00" fill="#8b0000"> &#45; </text><text text-anchor="start" x="43.3965" y="-9.2" font-family="Courier,monospace" font-size="6.00" fill="#000000">value</text><text text-anchor="start" x="61.3994" y="-9.2" font-family="Courier,monospace" font-weight="bold" font-size="6.00" fill="#000000"> &#160;: string</text></g><!-- NameValue&#45;&gt;Definition --><g id="edge8" class="edge"><title>NameValue&#45;&gt;Definition</title><path fill="none" stroke="#000000" d="M54.3087,-40.0261C50.9517,-47.3552 47.6842,-55.8516 46,-64 42.3577,-81.6223 44.7062,-101.0592 48.8208,-118.0103"/><polygon fill="#000000" stroke="#000000" points="48.9253,-118.3997 53.2609,-122.2053 51.4155,-127.6711 47.0799,-123.8654 48.9253,-118.3997"/></g><!-- Syntax --><g id="node6" class="node"><title>Syntax</title><polygon fill="#68afcb" stroke="transparent" points="85,-86 85,-100 209,-100 209,-86 85,-86"/><polygon fill="none" stroke="#68afcb" points="85,-86 85,-100 209,-100 209,-86 85,-86"/><text text-anchor="start" x="132.5977" y="-90.6" font-family="Courier,monospace" font-size="8.00" fill="#ffffff">Syntax</text><polygon fill="#dddddd" stroke="transparent" points="85,-68 85,-86 209,-86 209,-68 85,-68"/><polygon fill="none" stroke="#dddddd" points="85,-68 85,-86 209,-86 209,-68 85,-68"/><text text-anchor="start" x="87.5903" y="-79.2" font-family="Courier,monospace" font-size="6.00" fill="#8b0000"> &#45; </text><text text-anchor="start" x="98.3921" y="-79.2" font-family="Courier,monospace" font-size="6.00" fill="#000000">technologoyName</text><text text-anchor="start" x="152.4009" y="-79.2" font-family="Courier,monospace" font-weight="bold" font-size="6.00" fill="#000000"> &#160;: string &#160;&#160;&#160;&#160;</text><text text-anchor="start" x="87.5903" y="-73.2" font-family="Courier,monospace" font-size="6.00" fill="#8b0000"> &#45; </text><text text-anchor="start" x="98.3921" y="-73.2" font-family="Courier,monospace" font-size="6.00" fill="#000000">fields &#160;&#160;&#160;&#160;&#160;&#160;&#160;&#160;</text><text text-anchor="start" x="152.4009" y="-73.2" font-family="Courier,monospace" font-weight="bold" font-size="6.00" fill="#000000"> &#160;: NameValue[]</text></g><!-- NameValue&#45;&gt;Syntax --><g id="edge10" class="edge"><title>NameValue&#45;&gt;Syntax</title><path fill="none" stroke="#000000" d="M90.9453,-40.25C98.0435,-45.7901 105.8409,-51.8758 113.3045,-57.7011"/><polygon fill="#000000" stroke="#000000" points="113.6556,-57.9751 119.4084,-58.4058 121.2235,-63.8817 115.4707,-63.451 113.6556,-57.9751"/></g><!-- Syntax&#45;&gt;Definition --><g id="edge9" class="edge"><title>Syntax&#45;&gt;Definition</title><path fill="none" stroke="#000000" d="M125.883,-104.3445C120.5623,-109.4705 114.6521,-115.1644 108.6659,-120.9316"/><polygon fill="#000000" stroke="#000000" points="108.5479,-121.0453 107.3113,-126.6801 101.6344,-127.7059 102.8709,-122.0711 108.5479,-121.0453"/></g><!-- Release&#45;&gt;Shuck --><g id="edge3" class="edge"><title>Release&#45;&gt;Shuck</title><path fill="none" stroke="#000000" d="M218.8239,-398.1061C203.9345,-404.35 186.9271,-411.4822 170.746,-418.2678"/><polygon fill="#000000" stroke="#000000" points="170.7133,-418.2815 167.5243,-423.0888 161.8602,-421.9941 165.0492,-417.1868 170.7133,-418.2815"/></g></g></svg>